<svg xmlns="http://www.w3.org/2000/svg" viewBox="0 0 900 640" width="900" height="640" role="img" aria-hidden="true">
    <defs>
      <linearGradient id="g" x1="0" y1="0" x2="1" y2="1">
        <stop offset="0%" stop-color="#FDF5EF"/>
        <stop offset="55%" stop-color="#FBEAE6"/>
        <stop offset="100%" stop-color="#F6DED9"/>
      </linearGradient>
      <radialGradient id="v" cx="0.72" cy="0.28" r="0.85">
        <stop offset="0%" stop-color="#FFFFFF" stop-opacity="0.55"/>
        <stop offset="100%" stop-color="#FFFFFF" stop-opacity="0"/>
      </radialGradient>
    </defs>
    <rect width="900" height="640" fill="url(#g)"/>
    <rect width="900" height="640" fill="url(#v)"/>
    <path d="M 350.97111815493554 320 A 192 192 0 1 1 681.2 452.5"
          fill="none" stroke="#CB8C78" stroke-width="1.25" opacity="0.55" stroke-linecap="round"/>
    <circle cx="472.3" cy="498.5" r="1.6" fill="#CB8C78" opacity="0.55"/><circle cx="442.7" cy="483.7" r="2.0" fill="#CB8C78" opacity="0.55"/><circle cx="416.0" cy="464.0" r="2.3" fill="#CB8C78" opacity="0.55"/><circle cx="393.1" cy="440.0" r="2.6" fill="#CB8C78" opacity="0.55"/><circle cx="374.7" cy="412.5" r="3.0" fill="#CB8C78" opacity="0.55"/><circle cx="361.3" cy="382.2" r="3.4" fill="#CB8C78" opacity="0.55"/><circle cx="353.3" cy="350.0" r="3.7" fill="#CB8C78" opacity="0.55"/><polygon points="545.6,279.7 545.6,360.3 475.8,400.6 405.9,360.3 405.9,279.7 475.8,239.4" fill="none" stroke="#AF949E" stroke-width="1.2" opacity="0.45"/><line x1="545.6" y1="279.7" x2="569.4" y2="266.0" stroke="#AF949E" stroke-width="1.1" opacity="0.45"/><line x1="475.8" y1="400.6" x2="475.8" y2="428.1" stroke="#AF949E" stroke-width="1.1" opacity="0.45"/><line x1="405.9" y1="279.7" x2="382.2" y2="266.0" stroke="#AF949E" stroke-width="1.1" opacity="0.45"/><circle cx="545.6" cy="279.7" r="2.6" fill="#9F656B" opacity="0.6"/><circle cx="545.6" cy="360.3" r="2.6" fill="#9F656B" opacity="0.6"/><circle cx="475.8" cy="400.6" r="2.6" fill="#9F656B" opacity="0.6"/><circle cx="405.9" cy="360.3" r="2.6" fill="#9F656B" opacity="0.6"/><circle cx="405.9" cy="279.7" r="2.6" fill="#9F656B" opacity="0.6"/><circle cx="475.8" cy="239.4" r="2.6" fill="#9F656B" opacity="0.6"/><polygon points="676.8,331.5 676.8,393.0 623.6,423.7 570.4,393.0 570.4,331.5 623.6,300.8" fill="none" stroke="#AF949E" stroke-width="1.2" opacity="0.35"/><line x1="676.8" y1="331.5" x2="694.9" y2="321.1" stroke="#AF949E" stroke-width="1.1" opacity="0.35"/><line x1="623.6" y1="423.7" x2="623.6" y2="444.6" stroke="#AF949E" stroke-width="1.1" opacity="0.35"/><line x1="570.4" y1="331.5" x2="552.3" y2="321.1" stroke="#AF949E" stroke-width="1.1" opacity="0.35"/><circle cx="676.8" cy="331.5" r="2.6" fill="#9F656B" opacity="0.5"/><circle cx="676.8" cy="393.0" r="2.6" fill="#9F656B" opacity="0.5"/><circle cx="623.6" cy="423.7" r="2.6" fill="#9F656B" opacity="0.5"/><circle cx="570.4" cy="393.0" r="2.6" fill="#9F656B" opacity="0.5"/><circle cx="570.4" cy="331.5" r="2.6" fill="#9F656B" opacity="0.5"/><circle cx="623.6" cy="300.8" r="2.6" fill="#9F656B" opacity="0.5"/><path d="M 725.3711181549355 473.6 C 716.1551181549355 419.84000000000003 737.6591181549355 373.76 728.4431181549355 320"
           stroke="#764E61" stroke-width="1.1" fill="none" opacity="0.5"/>
    <path d="M 729.3 446.0
             Q 749.1 443.0 753.7 423.5
             Q 733.9 426.5 729.3 446.0 Z"
          fill="#D7A7A5" opacity="0.5"/>
    <path d="M 729.3 446.0 L 753.7 423.5"
          stroke="#764E61" stroke-width="0.7" opacity="0.35" fill="none"/>
    <path d="M 731.5 426.0
             Q 724.3 406.5 703.5 406.0
             Q 710.7 425.5 731.5 426.0 Z"
          fill="#D7A7A5" opacity="0.5"/>
    <path d="M 731.5 426.0 L 703.5 406.0"
          stroke="#764E61" stroke-width="0.7" opacity="0.35" fill="none"/>
    <path d="M 732.8 406.0
             Q 749.9 402.1 752.5 384.8
             Q 735.5 388.7 732.8 406.0 Z"
          fill="#D7A7A5" opacity="0.5"/>
    <path d="M 732.8 406.0 L 752.5 384.8"
          stroke="#764E61" stroke-width="0.7" opacity="0.35" fill="none"/>
    <path d="M 733.0 386.0
             Q 729.0 366.9 709.7 363.6
             Q 713.7 382.7 733.0 386.0 Z"
          fill="#D7A7A5" opacity="0.5"/>
    <path d="M 733.0 386.0 L 709.7 363.6"
          stroke="#764E61" stroke-width="0.7" opacity="0.35" fill="none"/>
    <path d="M 732.0 366.1
             Q 747.3 363.7 750.7 348.7
             Q 735.4 351.0 732.0 366.1 Z"
          fill="#D7A7A5" opacity="0.5"/>
    <path d="M 732.0 366.1 L 750.7 348.7"
          stroke="#764E61" stroke-width="0.7" opacity="0.35" fill="none"/>
    <path d="M 730.0 346.1
             Q 725.5 332.4 711.1 331.5
             Q 715.6 345.3 730.0 346.1 Z"
          fill="#D7A7A5" opacity="0.5"/>
    <path d="M 730.0 346.1 L 711.1 331.5"
          stroke="#764E61" stroke-width="0.7" opacity="0.35" fill="none"/><path d="M 112.67412322992458 163.21652035713197 Q 115.01412322992458 173.87652035713197 125.67412322992458 176.21652035713197
      Q 115.01412322992458 178.55652035713197 112.67412322992458 189.21652035713197
      Q 110.33412322992457 178.55652035713197 99.67412322992458 176.21652035713197
      Q 110.33412322992457 173.87652035713197 112.67412322992458 163.21652035713197 Z"
      fill="#CB8C78" opacity="0.75"/><path d="M 757.1134752519429 534.2134565711021 Q 758.7334752519429 541.5934565711021 766.1134752519429 543.2134565711021
      Q 758.7334752519429 544.8334565711021 757.1134752519429 552.2134565711021
      Q 755.4934752519429 544.8334565711021 748.1134752519429 543.2134565711021
      Q 755.4934752519429 541.5934565711021 757.1134752519429 534.2134565711021 Z"
      fill="#D7A7A5" opacity="0.6"/><line x1="72" y1="563.2" x2="306" y2="563.2" stroke="#CB8C78" stroke-width="1" opacity="0.4"/></svg>